<svg xmlns="http://www.w3.org/2000/svg" viewBox="0 0 100 100">
	<style>
		svg path { fill: #fff; }
		svg path:hover { fill: #444; }
	</style>
	<path d="M6.5 61c-2.6 0-4.8 2.2-4.8 4.9 0 2.6 2.2 4.7 4.8 4.7 2.6 0 4.8-2.1 4.8-4.7C11.3 63.2 9.1 61 6.5 61z"/>
	<path d="M30.4 25.8L16 30.7v0.6c3.6 2 4.7 3.7 4.7 6.8v11.3l0 0V60c0 7-2.3 10.6-8.1 11.8v1c7.9-0.4 17.8-4.2 18.1-15h0v-0.4V25.9v-0.1l0 0.1L30.4 25.8z"/>
	<path d="M60.3 63.3V50.7h0V39.6c0-8.3-4.2-13.7-12.9-13.7 -6.1 0-11.1 3.6-14.3 7.7v0.8c3.2-2.1 5.4-3.1 8.9-3.1 6.6 0 8.9 3.3 8.9 9.2v24c-0.2 5.6-2.1 7.1-6.6 7.7v0.6h6.6 9.4 6.6v-0.6C62 71.6 60.3 69.7 60.3 63.3z"/>
	<path d="M90 63.3V50.7h0V39.6c0-8.3-4.2-13.7-12.9-13.7 -6.1 0-11.1 3.6-14.3 7.7v0.8c3.2-2.1 5.4-3.1 8.9-3.1 6.6 0 8.9 3.3 8.9 9.2v24c-0.2 5.6-2.1 7.1-6.6 7.7v0.6h6.6H90h6.6v-0.6C91.7 71.6 90 69.7 90 63.3z"/>
</svg>